<?xml version="1.0" encoding="utf-8"?>
<!-- Generator: Adobe Illustrator 26.5.0, SVG Export Plug-In . SVG Version: 6.00 Build 0)  -->
<svg version="1.1" id="Ebene_1" xmlns:serif="http://www.serif.com/"
	 xmlns="http://www.w3.org/2000/svg" xmlns:xlink="http://www.w3.org/1999/xlink" x="0px" y="0px" width="50px" height="50px"
	 viewBox="0 0 50 50" style="enable-background:new 0 0 50 50;" xml:space="preserve">
<style type="text/css">
	.st0{fill:#FFFFFF;}
</style>
<g transform="matrix(4.16667,0,0,4.16667,0,0)">
	<path class="st0" d="M9.7,7.6c0.4-0.5,0.6-1.2,0.6-1.9c0-1.7-1.4-3-3-3c-0.5,0-1,0.1-1.4,0.4C6.2,3.3,6.4,3.6,6.6,4
		c0.2-0.1,0.5-0.2,0.8-0.2c1.1,0,1.9,0.9,1.9,1.9c0,0.4-0.1,0.7-0.3,1L8.3,6H7l1.2,1.4C8,7.5,7.7,7.6,7.3,7.6
		c-0.3,0-0.5-0.1-0.8-0.2C6.4,7.8,6.2,8.1,5.9,8.4c0.4,0.2,0.9,0.4,1.4,0.4C8,8.8,8.5,8.6,9,8.2l0.4,0.4h1.3L9.7,7.6z"/>
	<path class="st0" d="M6.2,5.7c0-1.7-1.4-3-3-3c-0.5,0-1,0.1-1.4,0.4C2,3.3,2.2,3.6,2.4,4c0.2-0.1,0.5-0.2,0.8-0.2
		c1.1,0,1.9,0.9,1.9,1.9c0,1.1-0.9,1.9-1.9,1.9c-0.3,0-0.5-0.1-0.8-0.2V6H1.2v2.3c0.5,0.3,1.1,0.5,2,0.5C4.8,8.8,6.2,7.4,6.2,5.7z"
		/>
</g>
</svg>
